<svg width="1457.91259765625px" height="194.40001220703124px" xmlns="http://www.w3.org/2000/svg" viewBox="-478.956298828125 -22.20000610351562 1457.91259765625 194.40001220703124" style="background: rgb(15, 23, 42);" preserveAspectRatio="xMidYMid"><defs><filter id="editing-hole" x="-100%" y="-100%" width="300%" height="300%"><feFlood flood-color="#51a7d8" result="black"></feFlood><feMorphology operator="dilate" radius="2" in="SourceGraphic" result="erode"></feMorphology><feGaussianBlur in="erode" stdDeviation="4" result="blur"></feGaussianBlur><feOffset in="blur" dx="2" dy="2" result="offset"></feOffset><feComposite operator="atop" in="offset" in2="black" result="merge"></feComposite><feComposite operator="in" in="merge" in2="SourceGraphic" result="inner-shadow"></feComposite></filter></defs><g filter="url(#editing-hole)"><g transform="translate(-281.15996837615967, 126.93919849395752)"><path d="M69.22-66.64L69.22-26.77L69.22-26.77Q69.22-17.92 65.86-11.59L65.86-11.59L65.86-11.59Q62.50-5.26 56.39-1.96L56.39-1.96L56.39-1.96Q50.29 1.34 42.22 1.34L42.22 1.34L42.22 1.34Q28.90 1.34 21.62-6.05L21.62-6.05L21.62-6.05Q14.34-13.44 14.34-26.54L14.34-26.54L14.34-66.64L14.34-66.64Q14.34-71.12 13.27-73.42L13.27-73.42L13.27-73.42Q12.21-75.71 10.92-76.50L10.92-76.50L10.92-76.50Q9.63-77.28 9.63-77.06L9.63-77.06L27.10-77.06L27.10-77.06Q27.10-77.28 25.82-76.50L25.82-76.50L25.82-76.50Q24.53-75.71 23.46-73.47L23.46-73.47L23.46-73.47Q22.40-71.23 22.40-66.98L22.40-66.98L22.40-26.54L22.40-26.54Q22.40-15.68 27.61-9.74L27.61-9.74L27.61-9.74Q32.82-3.81 42.90-3.81L42.90-3.81L42.90-3.81Q52.19-3.81 57.57-9.46L57.57-9.46L57.57-9.46Q62.94-15.12 62.94-26.21L62.94-26.21L62.94-66.64L62.94-66.64Q62.94-71.12 61.82-73.42L61.82-73.42L61.82-73.42Q60.70-75.71 59.36-76.50L59.36-76.50L59.36-76.50Q58.02-77.28 58.02-77.06L58.02-77.06L74.14-77.06L74.14-77.06Q74.14-77.28 72.80-76.50L72.80-76.50L72.80-76.50Q71.46-75.71 70.34-73.42L70.34-73.42L70.34-73.42Q69.22-71.12 69.22-66.64L69.22-66.64ZM98.90 1.34L98.90 1.34Q95.54 1.34 91.95 0.22L91.95 0.22L91.95 0.22Q88.37-0.90 86.02-2.69L86.02-2.69L86.02-12.54L86.02-12.54Q88.14-7.28 91.78-4.98L91.78-4.98L91.78-4.98Q95.42-2.69 99.68-2.69L99.68-2.69L99.68-2.69Q103.15-2.69 105.34-4.59L105.34-4.59L105.34-4.59Q107.52-6.50 107.52-8.74L107.52-8.74L107.52-8.74Q107.52-11.20 105.28-12.88L105.28-12.88L105.28-12.88Q103.04-14.56 98.45-16.69L98.45-16.69L98.45-16.69Q92.51-19.49 89.26-22.18L89.26-22.18L89.26-22.18Q86.02-24.86 86.02-29.46L86.02-29.46L86.02-29.46Q86.02-34.50 89.82-38.08L89.82-38.08L89.82-38.08Q93.63-41.66 99.79-41.66L99.79-41.66L99.79-41.66Q104.05-41.66 107.18-40.66L107.18-40.66L107.18-40.66Q110.32-39.65 111.89-38.42L111.89-38.42L110.10-30.02L110.10-30.02Q108.75-33.82 105.62-35.73L105.62-35.73L105.62-35.73Q102.48-37.63 99.01-37.63L99.01-37.63L99.01-37.63Q95.98-37.63 94.02-35.84L94.02-35.84L94.02-35.84Q92.06-34.05 92.06-31.81L92.06-31.81L92.06-31.81Q92.06-28.78 94.47-26.99L94.47-26.99L94.47-26.99Q96.88-25.20 101.81-23.07L101.81-23.07L101.81-23.07Q107.63-20.61 110.71-18.09L110.71-18.09L110.71-18.09Q113.79-15.57 113.79-10.98L113.79-10.98L113.79-10.98Q113.79-7.73 112-4.93L112-4.93L112-4.93Q110.21-2.13 106.79-0.39L106.79-0.39L106.79-0.39Q103.38 1.34 98.90 1.34L98.90 1.34ZM142.13 1.34L142.13 1.34Q136.08 1.34 131.71-1.62L131.71-1.62L131.71-1.62Q127.34-4.59 125.05-9.35L125.05-9.35L125.05-9.35Q122.75-14.11 122.75-19.49L122.75-19.49L122.75-19.49Q122.75-26.43 125.50-31.47L125.50-31.47L125.50-31.47Q128.24-36.51 132.61-39.09L132.61-39.09L132.61-39.09Q136.98-41.66 141.68-41.66L141.68-41.66L141.68-41.66Q148.40-41.66 153.27-36.79L153.27-36.79L153.27-36.79Q158.14-31.92 158.59-23.30L158.59-23.30L129.47-23.30L129.47-23.30Q129.47-17.92 131.49-13.83L131.49-13.83L131.49-13.83Q133.50-9.74 136.92-7.56L136.92-7.56L136.92-7.56Q140.34-5.38 144.37-5.38L144.37-5.38L144.37-5.38Q154.90-5.38 158.59-12.10L158.59-12.10L158.59-12.10Q157.58-6.05 153.10-2.35L153.10-2.35L153.10-2.35Q148.62 1.34 142.13 1.34L142.13 1.34ZM140.90-37.97L140.90-37.97Q136.53-37.97 133.39-34.89L133.39-34.89L133.39-34.89Q130.26-31.81 129.58-26.88L129.58-26.88L149.97-26.88L149.97-26.88Q149.97-32.03 147.22-35L147.22-35L147.22-35Q144.48-37.97 140.90-37.97L140.90-37.97ZM179.20-31.47L179.20-31.47Q180.88-35.06 184.74-38.36L184.74-38.36L184.74-38.36Q188.61-41.66 192.53-41.66L192.53-41.66L192.53-41.66Q194.99-41.66 196.22-40.99L196.22-40.99L196.22-31.81L196.22-31.81Q193.76-34.83 189.28-34.83L189.28-34.83L189.28-34.83Q184.58-34.83 181.89-30.74L181.89-30.74L181.89-30.74Q179.20-26.66 179.20-20.27L179.20-20.27L179.20-11.20L179.20-11.20Q179.20-4.93 180.66-2.58L180.66-2.58L180.66-2.58Q182.11-0.22 183.46 0L183.46 0L167.66 0L167.66 0Q169.01-0.22 170.52-2.52L170.52-2.52L170.52-2.52Q172.03-4.82 172.03-11.20L172.03-11.20L172.03-28.11L172.03-28.11Q172.03-32.82 170.52-34.55L170.52-34.55L170.52-34.55Q169.01-36.29 167.10-36.29L167.10-36.29L179.20-41.66L179.20-31.47ZM243.71-41.66L243.71-34.05L243.71-34.05Q246.51-37.52 249.98-39.59L249.98-39.59L249.98-39.59Q253.46-41.66 257.26-41.66L257.26-41.66L257.26-41.66Q261.41-41.66 264.60-39.70L264.60-39.70L264.60-39.70Q267.79-37.74 269.25-34.05L269.25-34.05L269.25-34.05Q272.27-37.86 276.14-39.76L276.14-39.76L276.14-39.76Q280-41.66 284.14-41.66L284.14-41.66L284.14-41.66Q290.19-41.66 293.83-37.80L293.83-37.80L293.83-37.80Q297.47-33.94 297.47-26.66L297.47-26.66L297.47-11.09L297.47-11.09Q297.47-4.93 299.04-2.58L299.04-2.58L299.04-2.58Q300.61-0.22 301.84 0L301.84 0L285.94 0L285.94 0Q287.28-0.22 288.79-2.58L288.79-2.58L288.79-2.58Q290.30-4.93 290.30-11.20L290.30-11.20L290.30-23.97L290.30-23.97Q290.30-27.78 289.30-30.02L289.30-30.02L289.30-30.02Q288.29-32.26 286.61-33.71L286.61-33.71L286.61-33.71Q284.03-35.84 280.45-35.84L280.45-35.84L280.45-35.84Q276.53-35.84 273.56-33.21L273.56-33.21L273.56-33.21Q270.59-30.58 270.59-25.87L270.59-25.87L270.59-11.20L270.59-11.20Q270.59-4.93 272.10-2.58L272.10-2.58L272.10-2.58Q273.62-0.22 274.96 0L274.96 0L259.06 0L259.06 0Q260.40-0.22 261.91-2.58L261.91-2.58L261.91-2.58Q263.42-4.93 263.42-11.20L263.42-11.20L263.42-23.97L263.42-23.97Q263.42-27.78 262.42-30.02L262.42-30.02L262.42-30.02Q261.41-32.26 259.73-33.71L259.73-33.71L259.73-33.71Q257.15-35.84 253.57-35.84L253.57-35.84L253.57-35.84Q249.54-35.84 246.62-33.21L246.62-33.21L246.62-33.21Q243.71-30.58 243.71-25.87L243.71-25.87L243.71-11.20L243.71-11.20Q243.71-4.82 245.28-2.52L245.28-2.52L245.28-2.52Q246.85-0.22 248.19 0L248.19 0L232.29 0L232.29 0Q233.63-0.22 235.09-2.58L235.09-2.58L235.09-2.58Q236.54-4.93 236.54-11.20L236.54-11.20L236.54-28.11L236.54-28.11Q236.54-32.82 235.03-34.55L235.03-34.55L235.03-34.55Q233.52-36.29 231.62-36.29L231.62-36.29L243.71-41.66ZM344.62 1.34L344.62 1.34Q341.04 1.23 338.58-0.56L338.58-0.56L338.58-0.56Q336.11-2.35 335.78-4.70L335.78-4.70L335.78-4.70Q333.76-1.79 330.46-0.22L330.46-0.22L330.46-0.22Q327.15 1.34 323.90 1.34L323.90 1.34L323.90 1.34Q318.75 1.34 315.28-1.62L315.28-1.62L315.28-1.62Q311.81-4.59 311.81-9.41L311.81-9.41L311.81-9.41Q311.81-21.84 335.10-21.84L335.10-21.84L335.10-23.07L335.10-23.07Q335.10-29.23 333.31-32.14L333.31-32.14L333.31-32.14Q330.85-36.29 325.25-36.29L325.25-36.29L325.25-36.29Q320.88-36.29 318.02-33.71L318.02-33.71L318.02-33.71Q315.17-31.14 315.17-26.99L315.17-26.99L315.17-26.99Q314.50-28.11 314.10-29.01L314.10-29.01L314.10-29.01Q313.71-29.90 313.71-31.47L313.71-31.47L313.71-31.47Q313.71-35.50 317.52-38.58L317.52-38.58L317.52-38.58Q321.33-41.66 327.49-41.66L327.49-41.66L327.49-41.66Q336.22-41.66 339.92-35.84L339.92-35.84L339.92-35.84Q341.15-34.05 341.71-31.36L341.71-31.36L341.71-31.36Q342.27-28.67 342.27-24.30L342.27-24.30L342.27-10.98L342.27-10.98Q342.27-7.50 344.23-5.60L344.23-5.60L344.23-5.60Q346.19-3.70 349.78-3.70L349.78-3.70L351.23-3.70L344.62 1.34ZM335.10-18.48L335.10-18.48Q326.14-18.48 323.01-16.24L323.01-16.24L323.01-16.24Q319.87-14 319.87-10.19L319.87-10.19L319.87-10.19Q319.87-7.06 321.55-5.26L321.55-5.26L321.55-5.26Q323.23-3.47 326.03-3.47L326.03-3.47L326.03-3.47Q328.16-3.47 330.06-4.48L330.06-4.48L330.06-4.48Q331.97-5.49 333.31-7.28L333.31-7.28L333.31-7.28Q335.10-9.63 335.10-13.66L335.10-13.66L335.10-18.48ZM367.36-34.05L367.36-34.05Q369.94-37.52 373.46-39.59L373.46-39.59L373.46-39.59Q376.99-41.66 380.91-41.66L380.91-41.66L380.91-41.66Q386.96-41.66 390.60-37.80L390.60-37.80L390.60-37.80Q394.24-33.94 394.24-26.66L394.24-26.66L394.24-11.09L394.24-11.09Q394.24-6.38 395.25-3.92L395.25-3.92L395.25-3.92Q396.26-1.46 397.49-0.56L397.49-0.56L397.49-0.56Q398.72 0.34 398.72 0L398.72 0L382.59 0L382.59 0Q382.59 0.34 383.82-0.50L383.82-0.50L383.82-0.50Q385.06-1.34 386.06-3.81L386.06-3.81L386.06-3.81Q387.07-6.27 387.07-11.20L387.07-11.20L387.07-23.97L387.07-23.97Q387.07-27.78 386.06-30.02L386.06-30.02L386.06-30.02Q385.06-32.26 383.38-33.71L383.38-33.71L383.38-33.71Q380.80-35.84 377.22-35.84L377.22-35.84L377.22-35.84Q373.18-35.84 370.27-33.21L370.27-33.21L370.27-33.21Q367.36-30.58 367.36-25.87L367.36-25.87L367.36-11.20L367.36-11.20Q367.36-6.38 368.37-3.92L368.37-3.92L368.37-3.92Q369.38-1.46 370.66-0.56L370.66-0.56L370.66-0.56Q371.95 0.34 371.95 0L371.95 0L355.82 0L355.82 0Q355.82 0.34 357.06-0.50L357.06-0.50L357.06-0.50Q358.29-1.34 359.24-3.86L359.24-3.86L359.24-3.86Q360.19-6.38 360.19-11.20L360.19-11.20L360.19-28.11L360.19-28.11Q360.19-32.82 358.68-34.55L358.68-34.55L358.68-34.55Q357.17-36.29 355.26-36.29L355.26-36.29L367.36-41.66L367.36-34.05ZM441.39 1.34L441.39 1.34Q437.81 1.23 435.34-0.56L435.34-0.56L435.34-0.56Q432.88-2.35 432.54-4.70L432.54-4.70L432.54-4.70Q430.53-1.79 427.22-0.22L427.22-0.22L427.22-0.22Q423.92 1.34 420.67 1.34L420.67 1.34L420.67 1.34Q415.52 1.34 412.05-1.62L412.05-1.62L412.05-1.62Q408.58-4.59 408.58-9.41L408.58-9.41L408.58-9.41Q408.58-21.84 431.87-21.84L431.87-21.84L431.87-23.07L431.87-23.07Q431.87-29.23 430.08-32.14L430.08-32.14L430.08-32.14Q427.62-36.29 422.02-36.29L422.02-36.29L422.02-36.29Q417.65-36.29 414.79-33.71L414.79-33.71L414.79-33.71Q411.94-31.14 411.94-26.99L411.94-26.99L411.94-26.99Q411.26-28.11 410.87-29.01L410.87-29.01L410.87-29.01Q410.48-29.90 410.48-31.47L410.48-31.47L410.48-31.47Q410.48-35.50 414.29-38.58L414.29-38.58L414.29-38.58Q418.10-41.66 424.26-41.66L424.26-41.66L424.26-41.66Q432.99-41.66 436.69-35.84L436.69-35.84L436.69-35.84Q437.92-34.05 438.48-31.36L438.48-31.36L438.48-31.36Q439.04-28.67 439.04-24.30L439.04-24.30L439.04-10.98L439.04-10.98Q439.04-7.50 441.00-5.60L441.00-5.60L441.00-5.60Q442.96-3.70 446.54-3.70L446.54-3.70L448.00-3.70L441.39 1.34ZM431.87-18.48L431.87-18.48Q422.91-18.48 419.78-16.24L419.78-16.24L419.78-16.24Q416.64-14 416.64-10.19L416.64-10.19L416.64-10.19Q416.64-7.06 418.32-5.26L418.32-5.26L418.32-5.26Q420.00-3.47 422.80-3.47L422.80-3.47L422.80-3.47Q424.93-3.47 426.83-4.48L426.83-4.48L426.83-4.48Q428.74-5.49 430.08-7.28L430.08-7.28L430.08-7.28Q431.87-9.63 431.87-13.66L431.87-13.66L431.87-18.48ZM477.34-40.77L492.69-40.77L492.69-36.29L483.39-36.29L483.39-36.29Q487.42-31.36 487.42-26.21L487.42-26.21L487.42-26.21Q487.42-21.84 485.30-18.09L485.30-18.09L485.30-18.09Q483.17-14.34 479.19-12.10L479.19-12.10L479.19-12.10Q475.22-9.86 469.95-9.86L469.95-9.86L469.95-9.86Q467.26-9.86 464.58-10.30L464.58-10.30L464.58-10.30Q460.54-8.06 460.54-5.26L460.54-5.26L460.54-5.26Q460.54-4.14 461.10-3.14L461.10-3.14L461.10-3.14Q461.66-2.13 462.78-1.68L462.78-1.68L462.78-1.68Q464.35-1.01 466.82-0.73L466.82-0.73L466.82-0.73Q469.28-0.45 471.97-0.34L471.97-0.34L471.97-0.34Q474.66-0.22 475.78-0.22L475.78-0.22L475.78-0.22Q484.51 0.11 488.21 3.14L488.21 3.14L488.21 3.14Q491.90 6.16 491.90 10.42L491.90 10.42L491.90 10.42Q491.90 14.90 489.05 18.65L489.05 18.65L489.05 18.65Q486.19 22.40 480.82 24.58L480.82 24.58L480.82 24.58Q475.44 26.77 468.38 26.77L468.38 26.77L468.38 26.77Q463.23 26.77 459.42 25.31L459.42 25.31L459.42 25.31Q455.62 23.86 453.60 21.50L453.60 21.50L453.60 21.50Q451.58 19.15 451.58 16.46L451.58 16.46L451.58 16.46Q451.58 12.88 454.66 9.80L454.66 9.80L454.66 9.80Q457.74 6.72 462.34 5.15L462.34 5.15L462.34 5.15Q458.64 4.93 456.46 2.69L456.46 2.69L456.46 2.69Q454.27 0.45 454.27-2.13L454.27-2.13L454.27-2.13Q454.27-4.93 456.18-7L456.18-7L456.18-7Q458.08-9.07 461.66-11.42L461.66-11.42L461.66-11.42Q457.63-13.22 455.50-17.02L455.50-17.02L455.50-17.02Q453.38-20.83 453.38-25.09L453.38-25.09L453.38-25.09Q453.38-29.23 455.45-33.04L455.45-33.04L455.45-33.04Q457.52-36.85 461.61-39.26L461.61-39.26L461.61-39.26Q465.70-41.66 471.30-41.66L471.30-41.66L471.30-41.66Q474.21-41.66 477.34-40.77L477.34-40.77ZM470.06-37.63L470.06-37.63Q465.92-37.63 463.23-34.66L463.23-34.66L463.23-34.66Q460.54-31.70 460.54-27.10L460.54-27.10L460.54-27.10Q460.54-21.39 463.51-17.75L463.51-17.75L463.51-17.75Q466.48-14.11 470.74-14.11L470.74-14.11L470.74-14.11Q475.22-14.11 477.74-17.08L477.74-17.08L477.74-17.08Q480.26-20.05 480.26-24.98L480.26-24.98L480.26-24.98Q480.26-30.58 477.29-34.10L477.29-34.10L477.29-34.10Q474.32-37.63 470.06-37.63L470.06-37.63ZM470.51 6.50L468.16 6.50L468.16 6.50Q464.02 6.50 461.38 9.07L461.38 9.07L461.38 9.07Q458.75 11.65 458.75 14.78L458.75 14.78L458.75 14.78Q458.75 17.81 462.17 19.99L462.17 19.99L462.17 19.99Q465.58 22.18 471.30 22.18L471.30 22.18L471.30 22.18Q478.13 22.18 481.88 19.60L481.88 19.60L481.88 19.60Q485.63 17.02 485.63 13.22L485.63 13.22L485.63 13.22Q485.63 9.86 482.05 8.18L482.05 8.18L482.05 8.18Q478.46 6.50 470.51 6.50L470.51 6.50ZM518.45 1.34L518.45 1.34Q512.40 1.34 508.03-1.62L508.03-1.62L508.03-1.62Q503.66-4.59 501.37-9.35L501.37-9.35L501.37-9.35Q499.07-14.11 499.07-19.49L499.07-19.49L499.07-19.49Q499.07-26.43 501.82-31.47L501.82-31.47L501.82-31.47Q504.56-36.51 508.93-39.09L508.93-39.09L508.93-39.09Q513.30-41.66 518-41.66L518-41.66L518-41.66Q524.72-41.66 529.59-36.79L529.59-36.79L529.59-36.79Q534.46-31.92 534.91-23.30L534.91-23.30L505.79-23.30L505.79-23.30Q505.79-17.92 507.81-13.83L507.81-13.83L507.81-13.83Q509.82-9.74 513.24-7.56L513.24-7.56L513.24-7.56Q516.66-5.38 520.69-5.38L520.69-5.38L520.69-5.38Q531.22-5.38 534.91-12.10L534.91-12.10L534.91-12.10Q533.90-6.05 529.42-2.35L529.42-2.35L529.42-2.35Q524.94 1.34 518.45 1.34L518.45 1.34ZM517.22-37.97L517.22-37.97Q512.85-37.97 509.71-34.89L509.71-34.89L509.71-34.89Q506.58-31.81 505.90-26.88L505.90-26.88L526.29-26.88L526.29-26.88Q526.29-32.03 523.54-35L523.54-35L523.54-35Q520.80-37.97 517.22-37.97L517.22-37.97ZM555.52-41.66L555.52-34.05L555.52-34.05Q558.32-37.52 561.79-39.59L561.79-39.59L561.79-39.59Q565.26-41.66 569.07-41.66L569.07-41.66L569.07-41.66Q573.22-41.66 576.41-39.70L576.41-39.70L576.41-39.70Q579.60-37.74 581.06-34.05L581.06-34.05L581.06-34.05Q584.08-37.86 587.94-39.76L587.94-39.76L587.94-39.76Q591.81-41.66 595.95-41.66L595.95-41.66L595.95-41.66Q602-41.66 605.64-37.80L605.64-37.80L605.64-37.80Q609.28-33.94 609.28-26.66L609.28-26.66L609.28-11.09L609.28-11.09Q609.28-4.93 610.85-2.58L610.85-2.58L610.85-2.58Q612.42-0.22 613.65 0L613.65 0L597.74 0L597.74 0Q599.09-0.22 600.60-2.58L600.60-2.58L600.60-2.58Q602.11-4.93 602.11-11.20L602.11-11.20L602.11-23.97L602.11-23.97Q602.11-27.78 601.10-30.02L601.10-30.02L601.10-30.02Q600.10-32.26 598.42-33.71L598.42-33.71L598.42-33.71Q595.84-35.84 592.26-35.84L592.26-35.84L592.26-35.84Q588.34-35.84 585.37-33.21L585.37-33.21L585.37-33.21Q582.40-30.58 582.40-25.87L582.40-25.87L582.40-11.20L582.40-11.20Q582.40-4.93 583.91-2.58L583.91-2.58L583.91-2.58Q585.42-0.22 586.77 0L586.77 0L570.86 0L570.86 0Q572.21-0.22 573.72-2.58L573.72-2.58L573.72-2.58Q575.23-4.93 575.23-11.20L575.23-11.20L575.23-23.97L575.23-23.97Q575.23-27.78 574.22-30.02L574.22-30.02L574.22-30.02Q573.22-32.26 571.54-33.71L571.54-33.71L571.54-33.71Q568.96-35.84 565.38-35.84L565.38-35.84L565.38-35.84Q561.34-35.84 558.43-33.21L558.43-33.21L558.43-33.21Q555.52-30.58 555.52-25.87L555.52-25.87L555.52-11.20L555.52-11.20Q555.52-4.82 557.09-2.52L557.09-2.52L557.09-2.52Q558.66-0.22 560 0L560 0L544.10 0L544.10 0Q545.44-0.22 546.90-2.58L546.90-2.58L546.90-2.58Q548.35-4.93 548.35-11.20L548.35-11.20L548.35-28.11L548.35-28.11Q548.35-32.82 546.84-34.55L546.84-34.55L546.84-34.55Q545.33-36.29 543.42-36.29L543.42-36.29L555.52-41.66ZM642.10 1.34L642.10 1.34Q636.05 1.34 631.68-1.62L631.68-1.62L631.68-1.62Q627.31-4.59 625.02-9.35L625.02-9.35L625.02-9.35Q622.72-14.11 622.72-19.49L622.72-19.49L622.72-19.49Q622.72-26.43 625.46-31.47L625.46-31.47L625.46-31.47Q628.21-36.51 632.58-39.09L632.58-39.09L632.58-39.09Q636.94-41.66 641.65-41.66L641.65-41.66L641.65-41.66Q648.37-41.66 653.24-36.79L653.24-36.79L653.24-36.79Q658.11-31.92 658.56-23.30L658.56-23.30L629.44-23.30L629.44-23.30Q629.44-17.92 631.46-13.83L631.46-13.83L631.46-13.83Q633.47-9.74 636.89-7.56L636.89-7.56L636.89-7.56Q640.30-5.38 644.34-5.38L644.34-5.38L644.34-5.38Q654.86-5.38 658.56-12.10L658.56-12.10L658.56-12.10Q657.55-6.05 653.07-2.35L653.07-2.35L653.07-2.35Q648.59 1.34 642.10 1.34L642.10 1.34ZM640.86-37.97L640.86-37.97Q636.50-37.97 633.36-34.89L633.36-34.89L633.36-34.89Q630.22-31.81 629.55-26.88L629.55-26.88L649.94-26.88L649.94-26.88Q649.94-32.03 647.19-35L647.19-35L647.19-35Q644.45-37.97 640.86-37.97L640.86-37.97ZM679.17-34.05L679.17-34.05Q681.74-37.52 685.27-39.59L685.27-39.59L685.27-39.59Q688.80-41.66 692.72-41.66L692.72-41.66L692.72-41.66Q698.77-41.66 702.41-37.80L702.41-37.80L702.41-37.80Q706.05-33.94 706.05-26.66L706.05-26.66L706.05-11.09L706.05-11.09Q706.05-6.38 707.06-3.92L707.06-3.92L707.06-3.92Q708.06-1.46 709.30-0.56L709.30-0.56L709.30-0.56Q710.53 0.34 710.53 0L710.53 0L694.40 0L694.40 0Q694.40 0.34 695.63-0.50L695.63-0.50L695.63-0.50Q696.86-1.34 697.87-3.81L697.87-3.81L697.87-3.81Q698.88-6.27 698.88-11.20L698.88-11.20L698.88-23.97L698.88-23.97Q698.88-27.78 697.87-30.02L697.87-30.02L697.87-30.02Q696.86-32.26 695.18-33.71L695.18-33.71L695.18-33.71Q692.61-35.84 689.02-35.84L689.02-35.84L689.02-35.84Q684.99-35.84 682.08-33.21L682.08-33.21L682.08-33.21Q679.17-30.58 679.17-25.87L679.17-25.87L679.17-11.20L679.17-11.20Q679.17-6.38 680.18-3.92L680.18-3.92L680.18-3.92Q681.18-1.46 682.47-0.56L682.47-0.56L682.47-0.56Q683.76 0.34 683.76 0L683.76 0L667.63 0L667.63 0Q667.63 0.34 668.86-0.50L668.86-0.50L668.86-0.50Q670.10-1.34 671.05-3.86L671.05-3.86L671.05-3.86Q672-6.38 672-11.20L672-11.20L672-28.11L672-28.11Q672-32.82 670.49-34.55L670.49-34.55L670.49-34.55Q668.98-36.29 667.07-36.29L667.07-36.29L679.17-41.66L679.17-34.05ZM735.06 1.34L735.06 1.34Q729.57 1.34 726.77-2.41L726.77-2.41L726.77-2.41Q723.97-6.16 723.97-11.42L723.97-11.42L723.97-36.29L717.70-36.29L731.14-51.52L731.14-40.77L745.47-40.77L745.47-36.29L731.14-36.29L731.14-12.66L731.14-12.66Q731.14-8.40 733.38-6.22L733.38-6.22L733.38-6.22Q735.62-4.03 738.53-4.03L738.53-4.03L738.53-4.03Q740.77-4.03 742.90-5.38L742.90-5.38L742.90-5.38Q745.02-6.72 746.37-9.07L746.37-9.07L746.37-9.07Q744.69 1.34 735.06 1.34L735.06 1.34ZM796.88 1.34L796.88 1.34Q793.52 1.34 789.94 0.22L789.94 0.22L789.94 0.22Q786.35-0.90 784-2.69L784-2.69L784-12.54L784-12.54Q786.13-7.28 789.77-4.98L789.77-4.98L789.77-4.98Q793.41-2.69 797.66-2.69L797.66-2.69L797.66-2.69Q801.14-2.69 803.32-4.59L803.32-4.59L803.32-4.59Q805.50-6.50 805.50-8.74L805.50-8.74L805.50-8.74Q805.50-11.20 803.26-12.88L803.26-12.88L803.26-12.88Q801.02-14.56 796.43-16.69L796.43-16.69L796.43-16.69Q790.50-19.49 787.25-22.18L787.25-22.18L787.25-22.18Q784-24.86 784-29.46L784-29.46L784-29.46Q784-34.50 787.81-38.08L787.81-38.08L787.81-38.08Q791.62-41.66 797.78-41.66L797.78-41.66L797.78-41.66Q802.03-41.66 805.17-40.66L805.17-40.66L805.17-40.66Q808.30-39.65 809.87-38.42L809.87-38.42L808.08-30.02L808.08-30.02Q806.74-33.82 803.60-35.73L803.60-35.73L803.60-35.73Q800.46-37.63 796.99-37.63L796.99-37.63L796.99-37.63Q793.97-37.63 792.01-35.84L792.01-35.84L792.01-35.84Q790.05-34.05 790.05-31.81L790.05-31.81L790.05-31.81Q790.05-28.78 792.46-26.99L792.46-26.99L792.46-26.99Q794.86-25.20 799.79-23.07L799.79-23.07L799.79-23.07Q805.62-20.61 808.70-18.09L808.70-18.09L808.70-18.09Q811.78-15.57 811.78-10.98L811.78-10.98L811.78-10.98Q811.78-7.73 809.98-4.93L809.98-4.93L809.98-4.93Q808.19-2.13 804.78-0.39L804.78-0.39L804.78-0.39Q801.36 1.34 796.88 1.34L796.88 1.34ZM835.18-0.34L836.42-3.36L823.31-33.04L823.31-33.04Q821.41-37.30 819.67-38.92L819.67-38.92L819.67-38.92Q817.94-40.54 816.93-40.77L816.93-40.77L833.28-40.77L833.28-40.77Q832.27-40.54 831.26-39.76L831.26-39.76L831.26-39.76Q830.26-38.98 830.26-36.96L830.26-36.96L830.26-36.96Q830.26-35.06 831.38-32.70L831.38-32.70L840.45-11.76L848.51-31.58L848.51-31.58Q849.30-33.60 849.30-35.73L849.30-35.73L849.30-35.73Q849.30-37.74 848.46-39.09L848.46-39.09L848.46-39.09Q847.62-40.43 845.71-40.77L845.71-40.77L860.72-40.77L860.72-40.77Q859.49-40.54 857.53-38.86L857.53-38.86L857.53-38.86Q855.57-37.18 853.66-32.59L853.66-32.59L838.43 2.80L838.43 2.80Q835.41 9.86 833.95 13.94L833.95 13.94L833.95 13.94Q832.50 18.03 831.15 22.40L831.15 22.40L831.15 22.40Q830.59 24.53 830.03 25.98L830.03 25.98L818.61 25.98L818.61 25.98Q821.63 24.53 826.06 17.81L826.06 17.81L826.06 17.81Q830.48 11.09 835.18-0.34L835.18-0.34ZM880.21 1.34L880.21 1.34Q876.85 1.34 873.26 0.22L873.26 0.22L873.26 0.22Q869.68-0.90 867.33-2.69L867.33-2.69L867.33-12.54L867.33-12.54Q869.46-7.28 873.10-4.98L873.10-4.98L873.10-4.98Q876.74-2.69 880.99-2.69L880.99-2.69L880.99-2.69Q884.46-2.69 886.65-4.59L886.65-4.59L886.65-4.59Q888.83-6.50 888.83-8.74L888.83-8.74L888.83-8.74Q888.83-11.20 886.59-12.88L886.59-12.88L886.59-12.88Q884.35-14.56 879.76-16.69L879.76-16.69L879.76-16.69Q873.82-19.49 870.58-22.18L870.58-22.18L870.58-22.18Q867.33-24.86 867.33-29.46L867.33-29.46L867.33-29.46Q867.33-34.50 871.14-38.08L871.14-38.08L871.14-38.08Q874.94-41.66 881.10-41.66L881.10-41.66L881.10-41.66Q885.36-41.66 888.50-40.66L888.50-40.66L888.50-40.66Q891.63-39.65 893.20-38.42L893.20-38.42L891.41-30.02L891.41-30.02Q890.06-33.82 886.93-35.73L886.93-35.73L886.93-35.73Q883.79-37.63 880.32-37.63L880.32-37.63L880.32-37.63Q877.30-37.63 875.34-35.84L875.34-35.84L875.34-35.84Q873.38-34.05 873.38-31.81L873.38-31.81L873.38-31.81Q873.38-28.78 875.78-26.99L875.78-26.99L875.78-26.99Q878.19-25.20 883.12-23.07L883.12-23.07L883.12-23.07Q888.94-20.61 892.02-18.09L892.02-18.09L892.02-18.09Q895.10-15.57 895.10-10.98L895.10-10.98L895.10-10.98Q895.10-7.73 893.31-4.93L893.31-4.93L893.31-4.93Q891.52-2.13 888.10-0.39L888.10-0.39L888.10-0.39Q884.69 1.34 880.21 1.34L880.21 1.34ZM919.63 1.34L919.63 1.34Q914.14 1.34 911.34-2.41L911.34-2.41L911.34-2.41Q908.54-6.16 908.54-11.42L908.54-11.42L908.54-36.29L902.27-36.29L915.71-51.52L915.71-40.77L930.05-40.77L930.05-36.29L915.71-36.29L915.71-12.66L915.71-12.66Q915.71-8.40 917.95-6.22L917.95-6.22L917.95-6.22Q920.19-4.03 923.10-4.03L923.10-4.03L923.10-4.03Q925.34-4.03 927.47-5.38L927.47-5.38L927.47-5.38Q929.60-6.72 930.94-9.07L930.94-9.07L930.94-9.07Q929.26 1.34 919.63 1.34L919.63 1.34ZM957.49 1.34L957.49 1.34Q951.44 1.34 947.07-1.62L947.07-1.62L947.07-1.62Q942.70-4.59 940.41-9.35L940.41-9.35L940.41-9.35Q938.11-14.11 938.11-19.49L938.11-19.49L938.11-19.49Q938.11-26.43 940.86-31.47L940.86-31.47L940.86-31.47Q943.60-36.51 947.97-39.09L947.97-39.09L947.97-39.09Q952.34-41.66 957.04-41.66L957.04-41.66L957.04-41.66Q963.76-41.66 968.63-36.79L968.63-36.79L968.63-36.79Q973.50-31.92 973.95-23.30L973.95-23.30L944.83-23.30L944.83-23.30Q944.83-17.92 946.85-13.83L946.85-13.83L946.85-13.83Q948.86-9.74 952.28-7.56L952.28-7.56L952.28-7.56Q955.70-5.38 959.73-5.38L959.73-5.38L959.73-5.38Q970.26-5.38 973.95-12.10L973.95-12.10L973.95-12.10Q972.94-6.05 968.46-2.35L968.46-2.35L968.46-2.35Q963.98 1.34 957.49 1.34L957.49 1.34ZM956.26-37.97L956.26-37.97Q951.89-37.97 948.75-34.89L948.75-34.89L948.75-34.89Q945.62-31.81 944.94-26.88L944.94-26.88L965.33-26.88L965.33-26.88Q965.33-32.03 962.58-35L962.58-35L962.58-35Q959.84-37.97 956.26-37.97L956.26-37.97ZM994.56-41.66L994.56-34.05L994.56-34.05Q997.36-37.52 1000.83-39.59L1000.83-39.59L1000.83-39.59Q1004.30-41.66 1008.11-41.66L1008.11-41.66L1008.11-41.66Q1012.26-41.66 1015.45-39.70L1015.45-39.70L1015.45-39.70Q1018.64-37.74 1020.10-34.05L1020.10-34.05L1020.10-34.05Q1023.12-37.86 1026.98-39.76L1026.98-39.76L1026.98-39.76Q1030.85-41.66 1034.99-41.66L1034.99-41.66L1034.99-41.66Q1041.04-41.66 1044.68-37.80L1044.68-37.80L1044.68-37.80Q1048.32-33.94 1048.32-26.66L1048.32-26.66L1048.32-11.09L1048.32-11.09Q1048.32-4.93 1049.89-2.58L1049.89-2.58L1049.89-2.58Q1051.46-0.22 1052.69 0L1052.69 0L1036.78 0L1036.78 0Q1038.13-0.22 1039.64-2.58L1039.64-2.58L1039.64-2.58Q1041.15-4.93 1041.15-11.20L1041.15-11.20L1041.15-23.97L1041.15-23.97Q1041.15-27.78 1040.14-30.02L1040.14-30.02L1040.14-30.02Q1039.14-32.26 1037.46-33.71L1037.46-33.71L1037.46-33.71Q1034.88-35.84 1031.30-35.84L1031.30-35.84L1031.30-35.84Q1027.38-35.84 1024.41-33.21L1024.41-33.21L1024.41-33.21Q1021.44-30.58 1021.44-25.87L1021.44-25.87L1021.44-11.20L1021.44-11.20Q1021.44-4.93 1022.95-2.58L1022.95-2.58L1022.95-2.58Q1024.46-0.22 1025.81 0L1025.81 0L1009.90 0L1009.90 0Q1011.25-0.22 1012.76-2.58L1012.76-2.58L1012.76-2.58Q1014.27-4.93 1014.27-11.20L1014.27-11.20L1014.27-23.97L1014.27-23.97Q1014.27-27.78 1013.26-30.02L1013.26-30.02L1013.26-30.02Q1012.26-32.26 1010.58-33.71L1010.58-33.71L1010.58-33.71Q1008.00-35.84 1004.42-35.84L1004.42-35.84L1004.42-35.84Q1000.38-35.84 997.47-33.21L997.47-33.21L997.47-33.21Q994.56-30.58 994.56-25.87L994.56-25.87L994.56-11.20L994.56-11.20Q994.56-4.82 996.13-2.52L996.13-2.52L996.13-2.52Q997.70-0.22 999.04 0L999.04 0L983.14 0L983.14 0Q984.48-0.22 985.94-2.58L985.94-2.58L985.94-2.58Q987.39-4.93 987.39-11.20L987.39-11.20L987.39-28.11L987.39-28.11Q987.39-32.82 985.88-34.55L985.88-34.55L985.88-34.55Q984.37-36.29 982.46-36.29L982.46-36.29L994.56-41.66Z" fill="#ffffff"></path></g></g><style>text {
  font-size: 64px;
  font-family: Arial Black;
  dominant-baseline: central;
  text-anchor: middle;
}</style></svg>